<svg width="197" height="58" viewBox="0 0 197 58" fill="none" xmlns="http://www.w3.org/2000/svg">
<g clip-path="url(#clip0_677_6)">
<path d="M6.669 9.9337V16.1289V16.8766C6.669 17.4107 6.77485 17.7311 6.98657 18.0516C7.19828 18.2652 7.62171 18.4788 8.04514 18.4788C8.78614 18.4788 9.42128 18.2652 9.95056 17.9448C10.5857 17.6243 11.0091 17.0902 11.3267 16.4494C11.6443 15.8085 11.856 15.0608 11.856 14.3131C11.856 13.4586 11.6443 12.6041 11.3267 11.8564C10.9033 11.1087 10.374 10.5746 9.73885 10.361C9.10371 10.0405 8.04514 9.82689 6.669 9.9337ZM6.669 8.75875C7.93928 8.75875 8.89199 8.65193 9.42128 8.33149C10.0564 8.01105 10.4798 7.58379 10.7974 7.04972C11.115 6.51565 11.3267 5.76796 11.3267 4.91344C11.3267 4.05893 11.2208 3.31123 10.7974 2.77716C10.5857 2.24309 10.1623 1.81584 9.52714 1.60221C8.99785 1.28177 8.04514 1.17495 6.669 1.17495V8.75875ZM11.5384 9.186C13.2321 9.61326 14.5024 10.1473 15.1376 10.7882C16.0903 11.6427 16.6196 12.8177 16.6196 14.2063C16.6196 15.7017 16.0903 16.8766 15.0317 17.8379C13.6556 19.0129 11.7501 19.547 9.20957 19.547H0V19.0129C0.846857 19.0129 1.37614 18.9061 1.69371 18.7993C2.01128 18.5856 2.223 18.372 2.32886 18.1584C2.43471 17.7311 2.54057 17.0902 2.54057 16.0221V3.41805C2.54057 2.34991 2.43471 1.70902 2.32886 1.4954C2.223 1.17495 2.01128 0.961326 1.69371 0.854512C1.37614 0.640884 0.846857 0.53407 0 0.53407V0H8.68028C10.7974 0 12.1736 0.213628 13.1263 0.640884C13.9731 1.06814 14.7141 1.60221 15.1376 2.45672C15.561 3.20442 15.8786 4.05893 15.8786 4.91344C15.8786 5.87477 15.561 6.72928 14.9258 7.37017C14.2907 8.11786 13.1263 8.75875 11.5384 9.186Z" fill="#15562C"/>
<path d="M28.4754 13.0313L25.8289 6.40884L23.0766 12.9245H28.4754V13.0313ZM29.0046 13.9926H22.6532L21.9122 15.8085C21.7005 16.4494 21.4888 16.9834 21.4888 17.3039C21.4888 17.8379 21.7005 18.2652 22.1239 18.4788C22.3356 18.5856 22.9708 18.6924 23.9235 18.7993V19.3333H17.8896V18.7993C18.5248 18.6924 19.0541 18.372 19.4775 17.9447C19.9009 17.5175 20.4302 16.5562 21.0654 15.0608L27.4168 0H27.6285L34.1916 15.5948C34.8268 17.0902 35.3561 17.9448 35.6736 18.372C35.9912 18.6924 36.4146 18.7993 36.9439 18.9061V19.4401H28.1578V18.9061H28.4754C29.2164 18.9061 29.6398 18.7993 29.9574 18.5856C30.1691 18.4788 30.2749 18.2652 30.2749 17.9447C30.2749 17.7311 30.2749 17.6243 30.1691 17.4107C30.1691 17.3039 30.0632 16.9834 29.7456 16.3425L29.0046 13.9926Z" fill="#15562C"/>
<path d="M44.1428 0L53.0348 11.9632V3.73849C53.0348 2.56354 52.929 1.81584 52.6114 1.38858C52.188 0.854512 51.447 0.53407 50.4943 0.53407V0H56.4222V0.53407C55.6812 0.640884 55.152 0.747698 54.8344 0.961326C54.6227 1.17495 54.411 1.38858 54.1993 1.81584C54.0934 2.13628 53.9875 2.77716 53.9875 3.73849V19.4401H53.5641L41.3905 3.73849V16.0221C41.3905 17.0902 41.6023 17.8379 42.1315 18.2652C42.6608 18.6924 43.1901 18.7993 43.7194 18.7993H44.1428V19.3333H37.6855V18.7993C38.6383 18.7993 39.3793 18.5856 39.8027 18.1584C40.2261 17.7311 40.4378 16.9834 40.4378 16.0221V2.34991L40.0144 1.81584C39.591 1.28177 39.2734 0.961326 38.9558 0.747698C38.6383 0.640884 38.2148 0.53407 37.6855 0.427256V0H44.1428Z" fill="#15562C"/>
<path d="M75.2645 0V6.62247H74.7352C74.3118 4.91344 73.5708 3.63168 72.5122 2.67035C71.4536 1.70902 70.2892 1.28177 68.913 1.28177C67.7486 1.28177 66.7959 1.60221 65.8432 2.34991C64.8905 2.99079 64.2553 3.95212 63.726 5.02026C63.1968 6.40884 62.8792 8.01105 62.8792 9.72007C62.8792 11.4291 63.0909 12.9245 63.5143 14.4199C63.9378 15.8085 64.5729 16.8766 65.4198 17.6243C66.2666 18.372 67.431 18.6925 68.8072 18.6925C69.9716 18.6925 71.0302 18.4788 71.877 17.9448C72.8298 17.4107 73.7825 16.5562 74.841 15.2744V16.8766C73.7825 17.9448 72.7239 18.7993 71.6653 19.3333C70.6068 19.8674 69.3365 20.081 67.8545 20.081C65.949 20.081 64.2553 19.6538 62.6675 18.9061C61.1855 18.0516 60.0211 16.8766 59.1742 15.3812C58.3273 13.8858 58.0098 12.2836 58.0098 10.4678C58.0098 8.65193 58.4332 6.94291 59.3859 5.3407C60.3386 3.73849 61.503 2.45672 62.985 1.60221C64.5729 0.747698 66.1608 0.213628 67.8545 0.213628C69.1248 0.213628 70.5009 0.53407 71.877 1.06814C72.7239 1.38858 73.2532 1.60221 73.4649 1.60221C73.7825 1.60221 73.9942 1.4954 74.2059 1.28177C74.4176 1.06814 74.5235 0.747698 74.6293 0.213628H75.2645V0Z" fill="#15562C"/>
<path d="M87.4377 0.961316C85.744 0.961316 84.5795 1.81583 83.6268 3.63167C82.8858 5.12706 82.5683 7.26334 82.5683 9.93369C82.5683 13.2449 83.0975 15.5948 84.1561 17.197C84.8971 18.2652 85.9557 18.7993 87.3318 18.7993C88.2845 18.7993 89.0255 18.5856 89.6607 18.0516C90.4017 17.4107 91.0368 16.4493 91.4602 15.1676C91.8837 13.8858 92.0954 12.07 92.0954 9.93369C92.0954 7.37016 91.8837 5.55432 91.4602 4.27255C91.0368 2.99078 90.4017 2.13627 89.7665 1.6022C89.1314 1.17494 88.2845 0.961316 87.4377 0.961316ZM87.226 -9.96608e-06C90.0841 -0.106824 92.413 0.747688 94.2125 2.67034C96.0121 4.59299 96.9648 6.9429 96.9648 9.72006C96.9648 12.1768 96.3297 14.3131 94.9535 16.1289C93.154 18.5856 90.6134 19.7606 87.4377 19.7606C84.1561 19.7606 81.7214 18.5856 79.9218 16.2357C78.5457 14.4199 77.8047 12.1768 77.8047 9.72006C77.8047 6.83609 78.7574 4.48618 80.557 2.56353C82.3565 0.747688 84.5795 -0.106824 87.226 -9.96608e-06Z" fill="#15562C"/>
<path d="M112.103 1.17495V9.50644C112.42 9.50644 112.632 9.50644 112.738 9.50644C113.796 9.50644 114.643 9.186 115.278 8.43831C115.913 7.69061 116.125 6.62247 116.125 5.23389C116.125 3.8453 115.808 2.77716 115.278 2.02947C114.643 1.38858 113.796 1.06814 112.632 1.06814H112.103V1.17495ZM112.103 10.6814V16.0221C112.103 17.0902 112.208 17.7311 112.314 18.0516C112.42 18.2652 112.632 18.5856 112.949 18.6924C113.267 18.7993 113.796 18.9061 114.643 18.9061V19.4401H105.434V18.9061C106.28 18.9061 106.81 18.7993 107.127 18.6924C107.445 18.4788 107.657 18.2652 107.762 18.0516C107.868 17.8379 107.974 17.0902 107.974 16.1289V3.41805C107.974 2.34991 107.868 1.70902 107.762 1.4954C107.657 1.17495 107.445 0.961326 107.127 0.854512C106.81 0.640884 106.28 0.640884 105.434 0.640884V0H113.267C115.913 0 117.713 0.53407 118.877 1.4954C120.042 2.45672 120.571 3.73849 120.571 5.23389C120.571 6.51565 120.254 7.58379 119.513 8.43831C118.772 9.29282 117.819 9.9337 116.549 10.2541C115.596 10.5746 114.22 10.6814 112.103 10.6814Z" fill="#15562C"/>
<path d="M138.673 12.6041L138.038 19.4401H121.947V18.9061H122.582C123.112 18.9061 123.535 18.7993 123.853 18.5856C124.064 18.4788 124.276 18.2652 124.382 17.9447C124.488 17.7311 124.488 17.0902 124.488 16.1289V3.41805C124.488 2.45672 124.488 1.81584 124.382 1.60221C124.276 1.38858 124.064 1.17495 123.747 0.961326C123.429 0.747698 123.112 0.640884 122.582 0.640884H121.947V0H131.58V0.53407H130.839C130.31 0.53407 129.887 0.640884 129.569 0.854512C129.357 0.961326 129.146 1.17495 129.04 1.4954C128.934 1.70902 128.934 2.34991 128.934 3.31123V15.7017C128.934 16.663 128.934 17.3039 129.04 17.6243C129.146 17.9447 129.357 18.0516 129.675 18.2652C129.887 18.372 130.416 18.372 131.263 18.372H132.745C133.697 18.372 134.544 18.1584 135.179 17.8379C135.815 17.5175 136.344 16.8766 136.873 16.1289C137.297 15.3812 137.826 14.2063 138.249 12.7109H138.673V12.6041Z" fill="#15562C"/>
<path d="M150.528 13.0313L147.882 6.40884L145.13 12.9245H150.528V13.0313ZM150.952 13.9926H144.6L143.859 15.8085C143.648 16.4494 143.436 16.9834 143.436 17.3039C143.436 17.8379 143.648 18.2652 144.071 18.4788C144.283 18.5856 144.918 18.6924 145.871 18.7993V19.3333H139.837V18.7993C140.472 18.6924 141.001 18.372 141.425 17.9447C141.848 17.5175 142.377 16.5562 143.013 15.0608L149.47 0H149.682L156.245 15.5948C156.88 17.0902 157.409 17.9448 157.727 18.372C158.044 18.6924 158.468 18.7993 158.997 18.9061V19.4401H150.317V18.9061H150.634C151.375 18.9061 151.799 18.7993 152.116 18.5856C152.328 18.4788 152.434 18.2652 152.434 17.9447C152.434 17.7311 152.434 17.6243 152.328 17.4107C152.328 17.3039 152.222 16.9834 151.905 16.3425L150.952 13.9926Z" fill="#15562C"/>
<path d="M175.934 0L165.349 18.2652H168.736C170.324 18.2652 171.488 18.1584 172.124 17.9448C173.182 17.6243 174.135 16.9834 174.876 16.0221C175.617 15.0608 176.146 13.8858 176.464 12.2836H176.993L176.252 19.3333H159.738L170.43 1.06814H167.783C166.725 1.06814 166.09 1.06814 165.772 1.17495C165.137 1.28177 164.608 1.60221 163.973 1.92265C163.443 2.24309 163.02 2.77716 162.596 3.41805C162.279 4.05893 161.961 4.80663 161.75 5.76796H161.22L161.75 0.106814H175.934V0Z" fill="#15562C"/>
<path d="M188.426 13.0313L185.78 6.40884L183.027 12.9245H188.426V13.0313ZM188.849 13.9926H182.498L181.757 15.8085C181.545 16.4494 181.334 16.9834 181.334 17.3039C181.334 17.8379 181.545 18.2652 181.969 18.4788C182.18 18.5856 182.816 18.6924 183.768 18.7993V19.3333H177.734V18.7993C178.37 18.6924 178.899 18.372 179.322 17.9447C179.746 17.5175 180.275 16.5562 180.91 15.0608L187.367 0H187.579L194.142 15.5948C194.777 17.0902 195.307 17.9448 195.624 18.372C195.942 18.6924 196.365 18.7993 196.895 18.9061V19.4401H188.108V18.9061H188.426C189.167 18.9061 189.59 18.7993 189.908 18.5856C190.12 18.4788 190.226 18.2652 190.226 17.9447C190.226 17.7311 190.226 17.6243 190.12 17.4107C190.12 17.3039 190.014 16.9834 189.696 16.3425L188.849 13.9926Z" fill="#15562C"/>
<path d="M68.4897 35.1418L69.019 31.1897H79.1813V27.558H40.1201L37.4736 35.1418H67.3253H68.4897Z" fill="#027A35"/>
<path d="M127.982 35.1418H159.421L158.892 27.558H117.608L116.761 31.1897H128.934L127.982 35.1418Z" fill="#83BB26"/>
<path d="M69.0185 31.1897L68.4892 35.1418L67.96 38.7735H73.5704H114.749H126.922L127.981 35.1418L128.934 31.1897H69.0185Z" fill="#62A730"/>
<path d="M140.049 46.6777C139.414 46.6777 138.567 47.3186 137.614 48.6004C136.661 49.8821 135.814 51.3775 135.179 52.8729C134.544 54.4751 134.227 55.5433 134.227 56.0773C134.227 56.7182 134.332 57.1455 134.544 57.4659C134.756 57.7864 135.073 57.8932 135.603 57.8932C135.814 57.8932 136.132 57.7864 136.661 57.5727C137.191 57.3591 137.402 57.1455 137.402 56.9318C137.402 56.9318 137.402 56.9318 137.296 56.9318L136.661 57.2523C136.238 57.4659 135.814 57.5727 135.497 57.5727C135.073 57.5727 134.756 57.3591 134.756 56.9318C134.756 54.5819 136.132 51.8048 138.884 48.7072L140.366 47.2118C140.472 46.9981 140.472 46.9981 140.472 46.8913C140.578 46.7845 140.366 46.6777 140.049 46.6777Z" fill="black"/>
<path d="M145.024 48.814C145.024 48.7072 145.448 48.2799 146.4 47.639C147.353 46.8913 147.882 46.5709 147.988 46.5709C148.094 46.5709 148.2 46.6777 148.2 46.7845C148.2 46.9981 148.2 47.105 148.094 47.2118C147.988 47.3186 147.459 47.639 146.612 48.1731C145.765 48.7072 145.236 48.9208 145.13 48.9208C145.024 48.9208 145.024 48.9208 145.024 48.814ZM142.907 49.7753L142.695 49.3481C142.695 49.3481 142.801 49.2412 142.907 49.2412C143.013 49.2412 143.331 49.3481 143.648 49.4549C144.072 49.6685 144.283 49.7753 144.283 49.8821C144.072 50.2026 143.648 51.0571 143.013 52.5525C142.272 54.0479 141.954 55.0092 141.954 55.5433C141.954 56.0773 142.06 56.291 142.272 56.291C142.484 56.291 142.907 55.9705 143.331 55.4365C143.86 54.9024 144.283 54.1547 144.707 53.407L146.718 50.0958C146.93 49.6685 147.247 49.5617 147.459 49.5617C147.988 49.5617 148.306 49.6685 148.306 49.8821C148.306 49.7753 148.306 49.8821 148.2 49.9889C147.777 50.8435 147.353 51.8048 147.036 52.9797C146.718 54.1547 146.506 54.9024 146.506 55.2228C146.506 56.1842 146.718 56.7182 147.036 56.7182C147.141 56.7182 147.353 56.6114 147.777 56.291C147.777 56.291 147.777 56.3978 147.777 56.5046C147.777 56.9319 147.565 57.1455 147.036 57.1455C146.612 57.1455 146.189 56.9319 145.977 56.5046C145.765 56.0773 145.554 55.5433 145.554 54.9024C145.554 54.2615 145.659 53.407 145.977 52.3389C144.707 54.3683 143.86 55.6501 143.436 56.1842C143.013 56.7182 142.59 56.9319 142.166 56.9319C141.743 56.9319 141.425 56.825 141.213 56.5046C141.002 56.1842 140.79 55.8637 140.79 55.5433C140.79 54.9024 141.108 53.7274 141.849 52.232C142.484 50.6298 142.907 49.8821 142.907 49.7753Z" fill="black"/>
<path d="M160.267 53.0865C160.373 53.0865 160.373 53.0865 160.373 53.1933C160.373 53.3002 160.373 53.3002 160.373 53.407C158.679 55.8637 157.303 57.1455 156.245 57.1455C154.869 57.1455 154.233 56.5046 154.233 55.2228C154.233 54.2615 154.763 53.0865 155.715 51.698C156.668 50.3094 157.621 49.5617 158.468 49.5617C158.785 49.5617 159.103 49.6685 159.42 49.8821C159.738 50.0957 159.95 50.4162 159.95 50.6298C159.95 51.3775 159.738 51.8048 159.209 51.8048C159.103 51.8048 158.997 51.8048 158.997 51.698C159.209 51.2707 159.315 50.9503 159.315 50.6298C159.315 50.3094 159.209 50.2026 159.103 50.2026C158.891 50.2026 158.574 50.4162 158.15 50.7366C157.409 51.3775 156.668 52.232 156.139 53.1933C155.61 54.1547 155.292 55.0092 155.292 55.6501C155.292 56.291 155.504 56.6114 156.033 56.6114C156.562 56.6114 157.197 56.291 157.938 55.7569C158.362 55.3296 158.891 54.7956 159.526 54.1547C159.95 53.407 160.267 53.0865 160.267 53.0865Z" fill="black"/>
<path d="M162.279 49.7753L162.068 49.3481C162.068 49.3481 162.173 49.2412 162.279 49.2412C162.385 49.2412 162.703 49.3481 163.02 49.4549C163.444 49.6685 163.655 49.7753 163.655 49.8821C163.444 50.2026 163.02 51.0571 162.385 52.5525C161.644 54.0479 161.327 55.0092 161.327 55.5433C161.327 56.0773 161.432 56.291 161.644 56.291C161.856 56.291 162.279 55.9705 162.703 55.4365C163.232 54.9024 163.655 54.1547 164.079 53.407L166.09 50.0958C166.302 49.6685 166.619 49.5617 166.831 49.5617C167.36 49.5617 167.678 49.6685 167.678 49.8821C167.678 49.7753 167.678 49.8821 167.572 49.9889C167.149 50.8435 166.725 51.8048 166.408 52.9797C166.09 54.1547 165.878 54.9024 165.878 55.2228C165.878 56.1842 166.09 56.7182 166.408 56.7182C166.514 56.7182 166.725 56.6114 167.149 56.291C167.149 56.291 167.149 56.3978 167.149 56.5046C167.149 56.9319 166.937 57.1455 166.408 57.1455C165.984 57.1455 165.561 56.9319 165.349 56.5046C165.137 56.0773 164.926 55.5433 164.926 54.9024C164.926 54.2615 165.032 53.407 165.349 52.3388C164.079 54.3683 163.232 55.6501 162.809 56.1842C162.385 56.7182 161.962 56.9319 161.538 56.9319C161.115 56.9319 160.797 56.825 160.586 56.5046C160.374 56.1842 160.162 55.8637 160.162 55.5433C160.162 54.9024 160.48 53.7274 161.221 52.232C161.962 50.6298 162.279 49.8821 162.279 49.7753Z" fill="black"/>
<path d="M173.5 53.0865C173.606 53.0865 173.606 53.0865 173.606 53.1934C173.606 53.3002 173.606 53.3002 173.606 53.407C171.912 55.8637 170.536 57.1455 169.477 57.1455C168.101 57.1455 167.466 56.5046 167.466 55.2228C167.466 54.2615 167.995 53.0865 168.948 51.5911C169.901 50.2026 170.853 49.4549 171.806 49.4549C172.229 49.4549 172.547 49.5617 172.865 49.8821C173.182 50.0958 173.288 50.4162 173.288 50.7366C173.288 51.3775 172.865 51.9116 172.124 52.5525C171.383 53.1934 170.642 53.407 169.901 53.407C169.795 53.407 169.689 53.407 169.689 53.3002L169.795 53.1934C171.594 52.6593 172.547 51.698 172.547 50.3094C172.547 50.0957 172.441 49.9889 172.335 49.9889C172.124 49.9889 171.806 50.2026 171.383 50.523C170.642 51.1639 169.901 52.0184 169.371 52.9797C168.842 53.9411 168.524 54.7956 168.524 55.4365C168.524 56.0773 168.736 56.3978 169.265 56.3978C169.795 56.3978 170.43 56.0773 171.171 55.5433C171.594 55.116 172.124 54.5819 172.759 53.9411C173.182 53.407 173.5 53.0865 173.5 53.0865Z" fill="black"/>
<path d="M180.486 49.8821C180.486 49.7753 180.486 49.8821 180.38 49.9889C179.957 50.8435 179.533 51.8048 179.216 52.9797C178.898 54.1547 178.687 54.9024 178.687 55.2228C178.687 56.1842 178.898 56.7182 179.216 56.7182C179.322 56.7182 179.428 56.6114 179.639 56.5046C179.851 56.3978 179.851 56.291 179.851 56.291C179.851 56.291 179.957 56.3978 179.957 56.5046C179.957 56.9319 179.745 57.1455 179.216 57.1455C178.687 57.1455 178.369 56.9319 178.157 56.5046C177.946 56.0773 177.734 55.4365 177.734 54.6888C177.734 53.9411 177.946 52.8729 178.369 51.5912C178.792 50.3094 179.216 49.6685 179.533 49.6685H179.639C180.274 49.5617 180.486 49.6685 180.486 49.8821ZM178.687 50.2026C178.687 50.3094 178.687 50.4162 178.475 50.6298C176.781 52.7661 175.511 54.5819 174.876 56.0773L174.664 56.6114C174.558 56.825 174.452 56.825 174.346 56.825C174.241 56.825 174.029 56.825 173.817 56.7182C173.605 56.6114 173.605 56.5046 173.605 56.3978C173.605 56.0773 173.817 55.116 174.346 53.5138C174.876 51.8048 175.087 50.6298 175.087 49.7753C175.087 49.5617 174.982 49.4549 174.876 49.3481C174.77 49.3481 174.664 49.2412 174.558 49.2412C174.452 49.2412 174.346 49.2412 174.346 49.1344C174.346 49.0276 174.452 48.9208 174.664 48.9208C175.723 48.9208 176.252 49.3481 176.252 50.2026C176.252 50.523 175.828 51.8048 175.087 54.1547C175.828 53.0866 176.464 52.1252 177.099 51.2707C177.946 50.523 178.475 50.2026 178.687 50.2026Z" fill="black"/>
<path d="M183.344 46.9981L182.815 47.105C182.815 47.105 182.709 47.105 182.709 46.9981C182.709 46.8913 182.815 46.7845 183.027 46.6777C183.239 46.5709 183.344 46.5709 183.45 46.5709C184.191 46.5709 184.509 46.9982 184.509 47.7458C184.509 48.2799 184.403 48.814 184.085 49.5617C184.191 49.6685 184.403 49.6685 184.932 49.6685C185.462 49.6685 185.885 49.5617 186.097 49.4549C186.414 49.3481 186.52 49.2412 186.626 49.2412C186.732 49.2412 186.732 49.2412 186.732 49.3481C186.732 49.3481 186.732 49.4549 186.626 49.5617C185.885 50.2026 184.932 50.6298 183.874 50.7366C183.768 50.7366 183.662 50.7366 183.556 50.8435C182.074 53.8342 181.333 55.6501 181.333 56.3978C181.333 56.6114 181.439 56.825 181.651 56.825L182.286 56.7182C182.286 57.0387 182.074 57.2523 181.545 57.2523C180.804 57.2523 180.486 56.825 180.486 56.0773C180.486 55.4365 180.698 54.5819 181.121 53.407C181.333 52.8729 181.757 51.9116 182.286 50.7366C181.757 50.523 181.439 50.2026 181.439 49.7753C181.439 49.6685 181.439 49.5617 181.545 49.5617C181.757 49.6685 182.18 49.7753 182.603 49.7753C183.133 48.6004 183.344 47.8527 183.344 47.5322C183.556 47.2118 183.45 46.9981 183.344 46.9981Z" fill="black"/>
<path d="M190.754 56.825H190.966C190.966 56.9318 190.754 57.0387 190.331 57.0387C189.907 57.0387 189.59 56.825 189.378 56.5046C189.166 56.1841 188.955 55.6501 188.955 55.116C188.955 54.4751 189.06 53.8342 189.272 53.0865C189.272 53.0865 189.06 53.5138 188.637 54.0479C187.367 56.0773 186.308 57.1455 185.567 57.1455C185.25 57.1455 184.932 57.0387 184.72 56.7182C184.509 56.3978 184.297 56.0773 184.297 55.5433C184.297 55.0092 184.614 54.3683 185.144 53.407C185.673 52.4457 186.414 51.5911 187.155 50.8434C188.002 50.0957 188.637 49.6685 189.166 49.6685H189.378C190.013 49.6685 190.437 49.7753 190.86 49.9889C191.283 50.2026 191.495 50.523 191.495 50.9503C191.495 51.1639 191.389 51.1639 191.283 51.1639C191.283 51.1639 191.178 51.1639 191.178 51.0571C190.86 50.4162 190.542 50.2026 190.013 50.2026C189.166 50.2026 188.108 50.9503 186.943 52.4456C185.779 53.941 185.144 55.116 185.144 55.8637C185.144 56.1841 185.25 56.291 185.355 56.291C186.096 56.291 187.578 54.6887 189.907 51.3775H190.013C190.013 51.3775 190.225 51.4843 190.542 51.5911C190.754 51.698 190.966 51.9116 190.966 52.0184L190.648 52.6593C190.119 53.8342 189.907 54.7956 189.907 55.6501C190.119 56.3978 190.331 56.825 190.754 56.825Z" fill="black"/>
<path d="M196.47 49.6685C196.788 49.989 197 50.2026 197 50.3094C197 50.4162 197 50.4162 196.894 50.4162C196.576 50.3094 196.365 50.3094 196.259 50.3094C195.518 50.3094 194.777 50.523 194.036 51.0571C193.295 51.5912 192.871 52.1252 192.871 52.6593C192.871 52.7661 193.295 53.3002 194.036 54.1547C194.777 55.0092 195.2 55.6501 195.2 55.9705C195.2 56.291 194.988 56.6114 194.565 56.9319C194.142 57.2523 193.718 57.4659 193.189 57.4659C192.765 57.4659 192.342 57.3591 192.024 57.2523C191.707 57.1455 191.495 56.9319 191.495 56.8251C193.295 56.3978 194.247 55.9705 194.247 55.4365C194.247 55.3297 194.036 55.116 193.612 54.6888C192.765 53.9411 192.342 53.0866 192.342 52.2321C192.342 51.5912 192.765 50.9503 193.612 50.3094C194.459 49.6685 195.2 49.3481 195.941 49.3481C195.941 49.1344 196.153 49.3481 196.47 49.6685Z" fill="black"/>
<path d="M145.13 44.3278C144.918 45.1823 144.283 45.5028 141.743 45.3959C139.202 45.2891 137.085 44.5414 135.497 44.1142C133.909 43.6869 133.062 43.2597 132.427 43.6869C132.11 44.0074 132.004 44.4346 132.004 44.8619C132.11 45.1823 132.216 45.3959 132.321 45.2891C132.321 45.1823 132.427 45.0755 132.427 44.9687C132.533 44.4346 133.486 44.4346 134.756 44.6482C136.026 44.8619 139.52 45.7164 140.896 46.0368C142.272 46.3573 145.13 46.5709 145.659 45.7164C146.083 44.8619 145.342 43.5801 145.13 44.3278Z" fill="black"/>
</g>
<defs>
<clipPath id="clip0_677_6">
<rect width="197" height="58" fill="white"/>
</clipPath>
</defs>
</svg>
